<svg width="9" height="9" viewBox="0 0 9 9" fill="none" xmlns="http://www.w3.org/2000/svg">
<path d="M8.83888 4.89257L4.94942 0.410156C4.91426 0.369596 4.8708 0.337067 4.82197 0.314773C4.77314 0.292479 4.72009 0.280941 4.66641 0.280941C4.61274 0.280941 4.55969 0.292479 4.51086 0.314773C4.46203 0.337067 4.41856 0.369596 4.38341 0.410156L0.495121 4.89257C0.483371 4.90608 0.475753 4.92269 0.473173 4.94041C0.470593 4.95812 0.473161 4.97621 0.48057 4.99251C0.487979 5.00881 0.499918 5.02264 0.514964 5.03235C0.530009 5.04205 0.547528 5.04723 0.565433 5.04726H1.51465C1.56856 5.04726 1.62012 5.02382 1.65645 4.98281L4.22169 2.02617V8.62499C4.22169 8.67655 4.26387 8.71874 4.31544 8.71874H5.01856C5.07012 8.71874 5.11231 8.67655 5.11231 8.62499V2.02617L7.67755 4.98281C7.71271 5.02382 7.76427 5.04726 7.81935 5.04726H8.76857C8.84825 5.04726 8.89161 4.95351 8.83888 4.89257Z"/>
</svg>
