<svg width="13" height="13" viewBox="0 0 13 13" fill="none" xmlns="http://www.w3.org/2000/svg">
<path d="M6.66699 1.25C3.76777 1.25 1.41699 3.60078 1.41699 6.5C1.41699 9.39922 3.76777 11.75 6.66699 11.75C9.56621 11.75 11.917 9.39922 11.917 6.5C11.917 3.60078 9.56621 1.25 6.66699 1.25ZM6.66699 10.8594C4.25996 10.8594 2.30762 8.90703 2.30762 6.5C2.30762 4.09297 4.25996 2.14062 6.66699 2.14062C9.07402 2.14062 11.0264 4.09297 11.0264 6.5C11.0264 8.90703 9.07402 10.8594 6.66699 10.8594Z" fill="#A2A2A2"/>
<path d="M7.9748 4.21133C7.62324 3.90313 7.15918 3.73438 6.66699 3.73438C6.1748 3.73438 5.71074 3.9043 5.35918 4.21133C4.99355 4.53125 4.79199 4.96133 4.79199 5.42188V5.51094C4.79199 5.5625 4.83418 5.60469 4.88574 5.60469H5.44824C5.4998 5.60469 5.54199 5.5625 5.54199 5.51094V5.42188C5.54199 4.90508 6.04707 4.48438 6.66699 4.48438C7.28691 4.48438 7.79199 4.90508 7.79199 5.42188C7.79199 5.78633 7.53418 6.12031 7.13457 6.27383C6.88613 6.36875 6.6752 6.53516 6.52402 6.75312C6.37051 6.97578 6.29082 7.24297 6.29082 7.51367V7.76562C6.29082 7.81719 6.33301 7.85938 6.38457 7.85938H6.94707C6.99863 7.85938 7.04082 7.81719 7.04082 7.76562V7.49961C7.04143 7.38585 7.0763 7.2749 7.14089 7.18125C7.20549 7.0876 7.2968 7.01559 7.40293 6.97461C8.09434 6.70859 8.54082 6.09922 8.54082 5.42188C8.54199 4.96133 8.34043 4.53125 7.9748 4.21133ZM6.19824 9.07812C6.19824 9.20245 6.24763 9.32167 6.33554 9.40958C6.42344 9.49749 6.54267 9.54688 6.66699 9.54688C6.79131 9.54688 6.91054 9.49749 6.99845 9.40958C7.08636 9.32167 7.13574 9.20245 7.13574 9.07812C7.13574 8.9538 7.08636 8.83458 6.99845 8.74667C6.91054 8.65876 6.79131 8.60938 6.66699 8.60938C6.54267 8.60938 6.42344 8.65876 6.33554 8.74667C6.24763 8.83458 6.19824 8.9538 6.19824 9.07812Z" fill="#A2A2A2"/>
</svg>
